PathFileType	4	(X/Y/Z)	C:\Users\Willi\Documents\Github\OpenSimMatlabBasic\ExampleData\Trials\dynamic03\marker_experimental.trc
DataRate	CameraRate	NumFrames	NumMarkers	Units	OrigDataRate	OrigDataStartFrame	OrigNumFrames
150.000000	150.000000	2	179	mm	150.000000	47	189
Frame#	Time	LFHD			LBHD			RFHD			RBHD			C7			T10			CLAV			STRN			RBAK			LSHO			LUPA			LELB			LFRA			LWRB			LWRA			LFIN			RSHO			RUPA			RELB			RFRA			RWRB			RWRA			RFIN			SACR			LASI			RASI			LT1			LT2			LT3			LS1			LS2			LS3			LTOE			RT1			RT2			RT3			RS1			RS2			RS3			RHEE			RTOE			SACO			SACA			SACL			SACP			LHEE			RM5D			LM5D			LKNE			RKNE			LANK			RANK			LKJC			RKJC			LAJC			RAJC			LTHI			RTHI			LTIB			RTIB			P_ForcePlate1			P_ForcePlate2			P_ForcePlate3			funktRKJC			funktLKJC			funktRHIP			funktLHIP			LHJC			RHJC			LKNEshank			RKNEshank			LKJCshank			RKJCshank			LHF			COP_FP1			VECTIP_FP1			RawCentreFP1			COP_FP2			VECTIP_FP2			RawCentreFP2			COP_FP3			VECTIP_FP3			RawCentreFP3			LPelvisAngles			RPelvisAngles			LFootProgressAngles			RFootProgressAngles			LHipAngles			RHipAngles			LKneeAngles			RKneeAngles			LAnkleAngles			RAnkleAngles			LFFootAngles			RFFootAngles			LAbsAnkleAngle			RAbsAnkleAngle			RNeckAngles			LNeckAngles			RSpineAngles			LSpineAngles			LShoulderAngles			LElbowAngles			LWristAngles			RShoulderAngles			RElbowAngles			RWristAngles			RThoraxAngles			LThoraxAngles			RHeadAngles			LHeadAngles			LHipPower			LKneePower			LAnklePower			RHipPower			RKneePower			RAnklePower			LWaistPower			RWaistPower			LNeckPower			RNeckPower			LShoulderPower			RShoulderPower			LElbowPower			RElbowPower			LWristPower			RWristPower			F_ForcePlate1			F_ForcePlate2			F_ForcePlate3			LHipForce			RHipForce			LKneeForce			RKneeForce			LAnkleForce			RAnkleForce			LNormalisedGRF			RNormalisedGRF			LGroundReactionForce			RGroundReactionForce			LGRF			RGRF			LWaistForce			RWaistForce			LNeckForce			RNeckForce			LShoulderForce			RShoulderForce			LElbowForce			RElbowForce			LWristForce			RWristForce			Force_FP1			RawForceFP1			Force_FP2			RawForceFP2			Force_FP3			RawForceFP3			LHipMoment			RHipMoment			LKneeMoment			RKneeMoment			LAnkleMoment			RAnkleMoment			LGroundReactionMoment			RGroundReactionMoment			LWaistMoment			RWaistMoment			LNeckMoment			RNeckMoment			LShoulderMoment			RShoulderMoment			LElbowMoment			RElbowMoment			LWristMoment			RWristMoment			RawMomentFP1			RawMomentFP2			RawMomentFP3			
		X1	Y1	Z1	X2	Y2	Z2	X3	Y3	Z3	X4	Y4	Z4	X5	Y5	Z5	X6	Y6	Z6	X7	Y7	Z7	X8	Y8	Z8	X9	Y9	Z9	X10	Y10	Z10	X11	Y11	Z11	X12	Y12	Z12	X13	Y13	Z13	X14	Y14	Z14	X15	Y15	Z15	X16	Y16	Z16	X17	Y17	Z17	X18	Y18	Z18	X19	Y19	Z19	X20	Y20	Z20	X21	Y21	Z21	X22	Y22	Z22	X23	Y23	Z23	X24	Y24	Z24	X25	Y25	Z25	X26	Y26	Z26	X27	Y27	Z27	X28	Y28	Z28	X29	Y29	Z29	X30	Y30	Z30	X31	Y31	Z31	X32	Y32	Z32	X33	Y33	Z33	X34	Y34	Z34	X35	Y35	Z35	X36	Y36	Z36	X37	Y37	Z37	X38	Y38	Z38	X39	Y39	Z39	X40	Y40	Z40	X41	Y41	Z41	X42	Y42	Z42	X43	Y43	Z43	X44	Y44	Z44	X45	Y45	Z45	X46	Y46	Z46	X47	Y47	Z47	X48	Y48	Z48	X49	Y49	Z49	X50	Y50	Z50	X51	Y51	Z51	X52	Y52	Z52	X53	Y53	Z53	X54	Y54	Z54	X55	Y55	Z55	X56	Y56	Z56	X57	Y57	Z57	X58	Y58	Z58	X59	Y59	Z59	X60	Y60	Z60	X61	Y61	Z61	X62	Y62	Z62	X63	Y63	Z63	X64	Y64	Z64	X65	Y65	Z65	X66	Y66	Z66	X67	Y67	Z67	X68	Y68	Z68	X69	Y69	Z69	X70	Y70	Z70	X71	Y71	Z71	X72	Y72	Z72	X73	Y73	Z73	X74	Y74	Z74	X75	Y75	Z75	X76	Y76	Z76	X77	Y77	Z77	X78	Y78	Z78	X79	Y79	Z79	X80	Y80	Z80	X81	Y81	Z81	X82	Y82	Z82	X83	Y83	Z83	X84	Y84	Z84	X85	Y85	Z85	X86	Y86	Z86	X87	Y87	Z87	X88	Y88	Z88	X89	Y89	Z89	X90	Y90	Z90	X91	Y91	Z91	X92	Y92	Z92	X93	Y93	Z93	X94	Y94	Z94	X95	Y95	Z95	X96	Y96	Z96	X97	Y97	Z97	X98	Y98	Z98	X99	Y99	Z99	X100	Y100	Z100	X101	Y101	Z101	X102	Y102	Z102	X103	Y103	Z103	X104	Y104	Z104	X105	Y105	Z105	X106	Y106	Z106	X107	Y107	Z107	X108	Y108	Z108	X109	Y109	Z109	X110	Y110	Z110	X111	Y111	Z111	X112	Y112	Z112	X113	Y113	Z113	X114	Y114	Z114	X115	Y115	Z115	X116	Y116	Z116	X117	Y117	Z117	X118	Y118	Z118	X119	Y119	Z119	X120	Y120	Z120	X121	Y121	Z121	X122	Y122	Z122	X123	Y123	Z123	X124	Y124	Z124	X125	Y125	Z125	X126	Y126	Z126	X127	Y127	Z127	X128	Y128	Z128	X129	Y129	Z129	X130	Y130	Z130	X131	Y131	Z131	X132	Y132	Z132	X133	Y133	Z133	X134	Y134	Z134	X135	Y135	Z135	X136	Y136	Z136	X137	Y137	Z137	X138	Y138	Z138	X139	Y139	Z139	X140	Y140	Z140	X141	Y141	Z141	X142	Y142	Z142	X143	Y143	Z143	X144	Y144	Z144	X145	Y145	Z145	X146	Y146	Z146	X147	Y147	Z147	X148	Y148	Z148	X149	Y149	Z149	X150	Y150	Z150	X151	Y151	Z151	X152	Y152	Z152	X153	Y153	Z153	X154	Y154	Z154	X155	Y155	Z155	X156	Y156	Z156	X157	Y157	Z157	X158	Y158	Z158	X159	Y159	Z159	X160	Y160	Z160	X161	Y161	Z161	X162	Y162	Z162	X163	Y163	Z163	X164	Y164	Z164	X165	Y165	Z165	X166	Y166	Z166	X167	Y167	Z167	X168	Y168	Z168	X169	Y169	Z169	X170	Y170	Z170	X171	Y171	Z171	X172	Y172	Z172	X173	Y173	Z173	X174	Y174	Z174	X175	Y175	Z175	X176	Y176	Z176	X177	Y177	Z177	X178	Y178	Z178	X179	Y179	Z179	

48	0.3133333333333334	-284.8933715820312	1217.931396484375	-352.6973876953124	-404.0527954101562	1261.4228515625	-385.0944519042968	-285.1345520019531	1227.2109375	-239.1949310302734	-408.5143432617188	1287.122436523438	-219.9167022705077	-502.4832153320312	1126.94873046875	-293.1761779785156	-530.0418701171875	973.0191040039062	-294.0371704101562	-390.8600769042969	1080.948364257812	-302.0035705566406	-361.4925537109375	1029.648193359375	-304.6555786132812	-531.2059326171875	1045.014404296875	-211.9094543457031	-474.1372375488281	1101.14794921875	-431.1230468749999	-534.3243408203125	921.1746215820312	-480.9222412109374	-542.05224609375	859.6482543945312	-507.9920043945312	-524.5397338867188	791.7025756835938	-544.7149658203125	-468.5345153808594	686.3738403320312	-594.4841918945312	-402.069091796875	714.1201782226562	-587.1107177734375	-391.34619140625	669.5745849609375	-630.4365234375	-462.7198181152344	1097.975830078125	-163.1674652099609	-496.1636962890625	997.8001708984375	-119.3931884765624	-530.3720703125	853.2584838867188	-84.42176818847651	-534.6142578125	702.6495971679688	-67.31224822998043	-531.8499755859375	659.0576782226562	-60.30105590820308	-459.69140625	664.890625	-49.83290100097652	-471.6776123046875	601.440185546875	-22.8380088806152	-517.8807373046875	774.5291137695312	-293.9048767089843	-391.509521484375	734.2736206054688	-411.1262207031249	-372.1809997558594	746.1635131835938	-187.1522674560546	-431.7177429199219	537.763916015625	-446.2724609374999	-481.978759765625	426.2926025390625	-429.3528442382812	-418.5839538574219	436.5204772949219	-442.1991882324219	-586.6031494140625	280.3778686523438	-438.5917053222656	-701.7969360351562	295.2730712890625	-399.1861572265625	-614.9345703125	186.2682342529297	-435.8341064453125	-675.6075439453125	70.49695587158206	-401.5307006835938	-343.9740295410156	544.85205078125	-169.4316253662109	-358.3859558105469	429.8685607910156	-184.659194946289	-311.3456726074219	449.3988647460938	-190.7289581298828	-324.8225402832031	231.5876770019531	-182.8405609130859	-405.6075439453125	137.8898010253906	-189.0147857666016	-264.4530334472656	157.6888580322266	-207.5249176025391	-367.8638610839844	42.35776519775392	-265.2028503417969	-213.0282592773438	46.06781005859376	-235.1566009521484	-480.4235229492188	765.333984375	-291.9653930664062	-475.4945983886719	764.0781860351562	-292.3240966796874	-480.861328125	765.0646362304688	-297.0384216308593	-468.1190795898438	814.679931640625	-295.6471557617187	-742.87451171875	194.6219635009766	-347.6026306152344	-232.6585083007812	26.84758186340333	-205.4816589355469	-703.2335205078125	73.72092437744143	-428.3248596191406	-440.4831848144531	370.2104187011719	-431.2431030273438	-308.0489807128906	392.5149536132812	-202.8072967529297	-727.8192138671875	171.2377014160157	-398.06689453125	-324.5458068847656	56.70764923095705	-218.9373321533203	-432.057861328125	361.5966491699219	-380.40625	-321.6304931640625	387.0987854003906	-253.5086822509765	-705.666015625	160.3124237060547	-367.3865356445312	-312.2601318359375	65.96826171875001	-255.2911987304688	-447.0623779296875	530.2021484375	-454.8676452636718	-346.7634887695312	539.3629760742188	-157.6925201416015	-615.9549560546875	294.1649780273438	-450.7568969726562	-345.7133178710938	210.7605438232422	-169.7415466308594	-305.0514526367188	1.571020625704534e-14	-256.567138671875	254.2699890136719	-0.2560999989509441	-231.3000030517578	950.1600341796875	1.404999971389795	-394.6300048828125	0	0	0	0	0	0	0	0	0	0	0	0	-431.3233642578125	676.5112915039062	-342.8705444335937	-423.1551513671875	681.3672485351562	-241.3340301513672	-431.148193359375	362.4741516113281	-428.3782653808594	-308.0933532714844	399.2137451171875	-202.8879852294922	-427.0584411621094	353.260986328125	-377.1146545410156	-316.8997497558594	395.1180725097656	-254.7533874511718	0.4376042485237122	1.889891386032104	-0.2251281738281249	-305.0514526367188	1.571020625704534e-14	-256.567138671875	-366.3850402832031	409.8681030273438	-282.8759460449219	-256.7200012207031	0.07899999618532701	-396.4200134277344	254.2699890136719	-0.2560999989509441	-231.3000030517578	254.3151702880859	-0.5023738741874553	-231.3120574951172	254.2699890136719	-0.2560999989509441	-231.3000030517578	950.1600341796875	1.404999971389795	-394.6300048828125	950.1600341796875	1.404999971389795	-394.6300048828125	254.2699890136719	-0.2560999989509441	-231.3000030517578	14.00102519989014	-4.044405937194824	4.140295505523682	14.00102519989014	4.044405937194824	-4.140295505523682	65.63913726806641	-18.60208702087402	6.344456195831298	3.495730876922607	-9.128544807434082	1.349965453147888	14.73523712158203	-4.322055339813233	9.810815811157227	33.46481704711914	10.43267631530762	-3.485181331634521	54.16352462768555	-24.22980690002441	1.3254017829895	17.2139949798584	-35.04988098144531	-2.991904735565188	-11.03111743927002	15.52566242218018	-2.626638412475585	-5.125633716583252	9.791105270385742	-0.6609409451484675	0	2.921292181557503e-31	-4.770832183763384e-15	2.782985405235601e-15	-2.981770114852116e-16	2.546928546022379e-15	-5.260248184204102	0	0	-0.4213116765022278	0	0	23.74044418334961	4.115385055541991	7.799983024597168	23.74044418334961	-4.115385055541991	-7.799983024597168	-14.83590984344482	-0.08104158192872976	-4.076247215270996	-14.83590984344482	0.08104158192872976	4.076247215270996	-18.02840423583984	-22.00361442565918	-13.28988456726074	51.90557479858398	1.466235661530535e-12	1.590277359294845e-15	14.99193096160889	109.9052124023438	4.103688240051277	-24.57431602478027	-7.674449920654296	-13.6909761428833	37.18012619018555	4.532290341641154e-13	3.081162390251061e-15	7.055673599243164	84.64668273925781	-2.539883852005	-0.5049843788146973	3.996995449066162	0.9806209206581118	-0.5049843788146973	-3.996995449066162	-0.9806209206581118	-23.39954376220703	-2.865207910537719	-6.191945552825928	-23.39954376220703	2.865207910537719	6.191945552825928	0	0.8289105296134949	5.075613134353519e-17	0	-0.278639942407608	-1.7061775679204e-17	0	-0.001140620792284608	-6.984288011561315e-20	0	0.3040254414081573	1.861618918399305e-17	0	-0.242940366268158	-1.487580709669926e-17	0	0.07788892090320587	4.769320883657622e-18	nan	nan	nan	nan	nan	nan	nan	nan	nan	nan	nan	nan	0	-0.006293735932558775	-3.853801782243393e-19	0	-0.01167049258947372	-7.146115697085951e-19	0	-0.004159026779234409	-2.546669416378772e-19	0	0.005424396600574255	3.321484967099523e-19	0	-0.002952452283352613	-1.807855619221536e-19	0	0.0008384872926399112	5.134253895285986e-20	-366.3850402832031	409.8680725097656	-282.8759765625	254.3151702880859	-0.5023738145828105	-231.3120422363281	950.1600341796875	1.404999971389795	-394.6300048828125	0.4376042783260345	1.889891266822815	-0.2251281738281249	-2.422605991363525	-9.553593635559082	0.3332723081111902	-0.1370023936033249	0.7750380039215088	-0.02158642932772632	1.313519597053528	-10.73463153839111	0.3574515283107751	-0.2821788489818573	0.04908473789691924	0.0890032947063446	10.99699974060059	2.423204183578491	0.604972541332245	0	0	0	-17.43759155273438	112.4135818481445	-7.516939163208001	0	0	0	-1.710627794265747	11.02777194976807	-0.7374117374420159	0	0	0	-1.710627794265747	11.02777194976807	-0.7374117374420159	nan	nan	nan	nan	nan	nan	nan	nan	nan	nan	nan	nan	0.194872722029686	0.3948476612567902	0.2663386464118958	0.1545316129922867	0.5418552756309509	-0.1522370427846908	-0.05996716395020485	0.1789850145578384	0.1237063780426979	-0.1101986244320869	0.2323436886072159	-0.07382144033908843	0.0353371724486351	0.04757995158433914	0.008114350959658626	0.0169343426823616	0.0588936060667038	-0.04981007426977157	-366.3850402832031	409.8680725097656	-282.8759765625	-61.33361053466797	409.8680725097656	-26.30883026123044	254.3151702880859	-0.5023738145828105	-231.3120422363281	0.04518882185220718	-0.2462738305330276	-0.01204590406268837	950.1600341796875	1.404999971389795	-394.6300048828125	0.04518882185220718	-0.2462738305330276	-0.01204590406268837	-214.8072814941406	16.98944854736328	7.406513690948487	418.5007934570312	-121.1928100585937	-535.4357299804688	26.28616523742676	-24.19489479064942	53.43466567993164	521.2689208984375	-12.95954513549804	-153.2011108398438	-18.85273933410645	-5.819201469421387	2.308867931365966	-47.1904296875	-8.012865066528317	-57.90353775024414	nan	nan	nan	-1575.393188476562	-289.8021545410156	-540.4047241210938	nan	nan	nan	nan	nan	nan	nan	nan	nan	nan	nan	nan	28.5751953125	-13.94599819183349	-52.75483703613281	2.000706434249878	-5.787753582000731	-34.80292129516602	-5.082790374755859	-0.4126078486442555	-17.3971061706543	-19.49118614196777	-0.009000093676149259	-9.565388679504395	1.549398899078369	-9.597327945611832e-17	-0.03099057637155056	0.8850446343421936	-7.8385867865778e-16	-3.182148694992065	-57321.23046875	-10523.7216796875	-19809.513671875	11.00276756286621	-15.2636251449585	-13.61529159545899	11.00276756286621	-15.2636251449585	-13.61529159545899	
49	0.32	-277.1062316894531	1218.9599609375	-352.0753173828124	-396.2103576660156	1262.828735351562	-384.2269897460937	-277.1033020019531	1228.193115234375	-238.5683441162109	-400.275634765625	1288.471801757812	-219.0300292968749	-494.6343383789062	1128.280151367188	-292.0774536132812	-522.1755981445312	974.3339233398438	-292.7823181152343	-383.0739135742188	1082.377075195312	-301.2617492675781	-353.6992492675781	1031.085815429688	-304.0173034667968	-523.0315551757812	1046.3671875	-210.6280517578124	-466.7103576660156	1102.539916992188	-430.0786437988281	-526.9151000976562	922.57763671875	-479.6554260253906	-534.7498779296875	861.0272827148438	-506.5222473144531	-517.7421875	792.8700561523438	-542.9989013671875	-462.5901794433594	686.988525390625	-592.4724731445312	-395.8401794433594	714.103759765625	-585.1083984375	-385.3978576660156	668.7681884765625	-627.7693481445312	-454.4144592285156	1099.494140625	-162.2255706787109	-487.3421936035156	999.1504516601562	-118.287742614746	-520.94580078125	854.2697143554688	-83.47948455810541	-523.9629516601562	703.5896606445312	-66.46092224121089	-520.8067626953125	660.0009765625	-59.51659774780269	-448.700439453125	666.4772338867188	-49.07247543334957	-460.1295776367188	602.9910888671875	-21.93026161193844	-510.2851867675781	775.7826538085938	-292.7292785644531	-384.3224182128906	735.6014404296875	-410.3827819824218	-364.2716064453125	747.4010620117188	-186.4542236328124	-421.5093078613281	539.0399169921875	-446.3370971679687	-468.9202575683594	426.2841491699219	-428.9682006835938	-405.9888000488281	438.0673828125	-442.9961242675781	-571.7880249023438	282.59814453125	-438.6227111816406	-686.6438598632812	298.4097595214844	-398.356689453125	-600.841064453125	188.6865539550782	-435.9310607910156	-661.61865234375	74.0532150268555	-402.6317443847656	-337.4708862304688	545.265869140625	-169.144302368164	-353.1161804199219	430.4071960449219	-184.3314819335937	-305.9116516113281	449.4805297851562	-190.6962432861328	-322.23583984375	231.5395355224609	-182.9751281738281	-404.3215026855469	138.7649841308594	-189.2311096191406	-262.8804321289062	156.9251403808594	-207.9641876220703	-367.7588806152344	42.53146743774415	-265.3946838378906	-212.8979187011719	46.05247879028322	-235.4636077880859	-472.85498046875	766.6002197265625	-290.9160766601562	-467.9270935058594	765.3452758789062	-291.2911987304687	-473.3091125488281	766.3329467773438	-295.9877624511718	-460.5693054199219	815.949462890625	-294.6167602539062	-728.2858276367188	197.6762237548828	-346.8446655273438	-232.5983581542969	27.00706863403322	-205.5553283691406	-689.483154296875	77.36466979980472	-428.876708984375	-426.1722717285156	371.2671203613281	-431.9343872070312	-303.2616577148438	392.5987243652344	-202.8134155273437	-713.6484375	174.5617065429688	-397.3969421386719	-324.3627624511719	56.75924682617189	-219.4909362792969	-416.5721130371094	362.6297912597656	-381.310302734375	-317.2199096679688	387.341064453125	-253.4291076660156	-691.3781127929688	163.3685455322266	-366.8984985351562	-312.0308532714844	65.94355773925783	-255.8485260009766	-437.6671447753906	531.41064453125	-454.6958007812499	-340.068115234375	539.7899169921875	-157.4249420166015	-601.3536376953125	296.7467651367188	-450.4941711425781	-343.4442138671875	211.0716857910156	-169.9067993164062	-305.3161315917969	1.554974605807686e-14	-253.9466247558594	254.2699890136719	-0.2560999989509441	-231.3000030517578	950.1600341796875	1.404999971389795	-394.6300048828125	0	0	0	0	0	0	0	0	0	0	0	0	-423.9074096679688	677.8055419921875	-342.0165405273437	-415.4122314453125	682.6201782226562	-240.504898071289	-415.5703735351562	363.3390502929688	-429.2786254882812	-303.3184814453125	398.9761657714844	-202.6566925048828	-411.2056579589844	353.958740234375	-378.0680236816406	-312.2869873046875	395.1236572265625	-254.512939453125	0.4049246907234192	1.840682864189148	-0.2223233282566069	-305.3161315917969	1.554974605807686e-14	-253.9466247558594	-366.2690734863281	404.7651062011719	-278.4636840820312	-256.7200012207031	0.07899999618532701	-396.4200134277344	254.2699890136719	-0.2560999989509441	-231.3000030517578	254.3151702880859	-0.5023738741874553	-231.3120574951172	254.2699890136719	-0.2560999989509441	-231.3000030517578	950.1600341796875	1.404999971389795	-394.6300048828125	950.1600341796875	1.404999971389795	-394.6300048828125	254.2699890136719	-0.2560999989509441	-231.3000030517578	13.97982120513916	-4.230104446411133	4.161752700805664	13.97982120513916	4.230104446411133	-4.161752700805664	65.67212677001953	-19.59317398071289	6.606980323791503	3.498594999313354	-9.273213386535645	1.321991324424743	16.24769592285156	-5.115806579589845	9.959872245788574	32.83124542236328	10.61713218688965	-3.605536460876464	56.06140899658203	-23.87906455993652	2.155706644058226	17.30339813232422	-35.29855346679688	-3.103678226470949	-10.45446872711182	14.93029880523682	-2.379622697830199	-4.35633659362793	9.551112174987793	-0.5431849956512446	0	-7.951386796473772e-16	-6.361109437179021e-15	-1.192708045940846e-15	5.963540229704231e-16	-2.211479358470679e-15	-4.753726482391357	0	0	0.3462283611297607	0	0	23.92305374145508	4.184489727020263	7.760767459869385	23.92305374145508	-4.184489727020263	-7.760767459869385	-14.8355598449707	-0.08571947365999197	-4.033257007598877	-14.8355598449707	0.08571947365999197	4.033257007598877	-18.07295036315918	-21.774169921875	-13.25427722930908	51.57699966430664	1.421707911987424e-12	-1.590277359294668e-15	14.58221817016602	109.9353485107422	4.757642745971687	-24.29310035705566	-7.908862113952636	-13.56901836395264	37.29997634887695	1.344977081096932e-12	7.951386796474599e-16	7.102936744689941	84.62129974365234	-2.718177795410151	-0.5118145942687988	4.197187423706055	0.9659088253974917	-0.5118145942687988	-4.197187423706055	-0.9659088253974917	-23.55981636047363	-2.754558086395263	-6.213891506195068	-23.55981636047363	2.754558086395263	6.213891506195068	0	0.7837856411933899	4.799302883525704e-17	0	-0.2553785145282745	-1.563742401940286e-17	0	0.007742209825664759	4.740736240663767e-19	0	0.2043888419866562	1.251520705601963e-17	0	-0.1689959764480591	-1.034801908129485e-17	0	0.07963995635509491	4.876540881725095e-18	nan	nan	nan	nan	nan	nan	nan	nan	nan	nan	nan	nan	0	-0.006822218652814627	-4.1774041181264e-19	0	-0.0120106628164649	-7.354409886910938e-19	0	-0.004798100329935551	-2.937989105521716e-19	0	0.006576829589903355	4.027146652906371e-19	0	-0.003359571797773242	-2.05714442432436e-19	0	0.0009848832851275802	6.030670813326106e-20	-366.2690734863281	404.7651062011719	-278.4636840820312	254.3151702880859	-0.5023738145828105	-231.3120422363281	950.1600341796875	1.404999971389795	-394.6300048828125	0.4049246907234192	1.840682864189148	-0.2223233282566069	-2.252108097076416	-9.465924263000488	0.357517391443252	-0.1485434323549271	0.7140060067176819	-0.02111450582742687	1.452081561088562	-10.58370113372803	0.2946745455265039	-0.2625933289527893	0.05667037516832351	0.1011654362082481	10.86383152008057	2.402561187744141	0.5463464856147767	0	0	0	-17.13804244995117	113.5140075683594	-6.949637413024895	0	0	0	-1.681241989135742	11.13572406768799	-0.6817594170570367	0	0	0	-1.681241989135742	11.13572406768799	-0.6817594170570367	nan	nan	nan	nan	nan	nan	nan	nan	nan	nan	nan	nan	0.1929585933685303	0.386778712272644	0.2618710100650787	0.1513317972421646	0.5297921299934387	-0.150205448269844	-0.05931517854332924	0.177358090877533	0.1234109476208687	-0.1079215928912163	0.2277264446020126	-0.07213207334280013	0.03630481660366058	0.04764416441321373	0.009081261232495311	0.01593719609081745	0.05786191299557686	-0.0488792024552822	-366.2690734863281	404.7651062011719	-278.4636840820312	-60.95294952392578	404.7651062011719	-24.51705360412595	254.3151702880859	-0.5023738145828105	-231.3120422363281	0.04518882185220718	-0.2462738305330276	-0.01204590406268837	950.1600341796875	1.404999971389795	-394.6300048828125	0.04518882185220718	-0.2462738305330276	-0.01204590406268837	-197.9881439208984	19.66603088378906	12.48465538024903	304.4030456542969	-105.6368713378906	-519.26025390625	23.98688888549805	-26.21517372131348	57.02553558349609	556.0818481445312	-8.284032821655268	-94.23499298095703	-17.6464786529541	-6.881031513214111	2.765070438385009	-46.4532585144043	-7.014321327209472	-18.4031810760498	nan	nan	nan	-1591.35400390625	-279.0384521484374	-536.6563720703125	nan	nan	nan	nan	nan	nan	nan	nan	nan	nan	nan	nan	27.68553352355957	-14.16150474548339	-52.55289077758789	2.128828048706055	-5.494385719299315	-34.12504196166992	-5.673433303833008	-0.4457156360149372	-17.72240257263184	-19.10203742980957	0.009983663447201809	-9.079926490783691	1.693719506263733	8.921552401873934e-18	-0.1457000076770782	0.7875047922134399	-4.93373312925043e-16	-3.131074666976929	-57668.25390625	-10212.4345703125	-19670.017578125	11.00276756286621	-15.2636251449585	-13.61529159545899	11.00276756286621	-15.2636251449585	-13.61529159545899	
